<svg width="67" height="66" viewBox="0 0 67 66" fill="none" xmlns="http://www.w3.org/2000/svg">
<path d="M25.2134 20.0862C25.2134 21.6691 23.9229 22.9542 22.3332 22.9542C20.7436 22.9542 19.4531 21.6691 19.4531 20.0862C19.4531 18.9579 20.1088 17.9862 21.0584 17.516C21.2315 17.422 21.4204 17.3593 21.6145 17.3071V13.1697L14.7681 6.35757C14.4848 6.07548 14.4848 5.62099 14.7681 5.33889C15.0514 5.0568 15.5026 5.0568 15.7859 5.33889L23.0572 12.5794V17.3123C24.3006 17.6257 25.2134 18.7541 25.2134 20.0862Z" fill="#683862"/>
<path d="M33.8595 20.0863C33.8595 21.6691 32.5689 22.9543 30.9793 22.9543C29.3897 22.9543 28.0991 21.6691 28.0991 20.0863C28.0991 18.7542 29.012 17.6258 30.2606 17.3123V0.715688C30.2606 0.323888 30.5858 0 30.9793 0C31.3728 0 31.6981 0.323888 31.6981 0.715688V17.3071C32.9467 17.6258 33.8595 18.7542 33.8595 20.0863Z" fill="#683862"/>
<path d="M18.7346 29.3902C18.7346 30.9731 17.444 32.2582 15.8544 32.2582C14.2648 32.2582 12.9742 30.9731 12.9742 29.3902C12.9742 28.4081 13.4726 27.5305 14.2333 27.0238C14.5061 26.8357 14.8104 26.6947 15.1356 26.6163V22.902L7.0459 14.8519L7.54954 14.3504H7.55479L8.05843 13.8436L16.5679 22.317V26.6215C17.8165 26.9297 18.7346 28.0581 18.7346 29.3902Z" fill="#683862"/>
<path d="M33.8592 48.066C33.8592 49.6488 32.5686 50.934 30.979 50.934C29.6412 50.934 28.508 50.025 28.1932 48.7817H5.04149C4.64278 48.7817 4.32275 48.4578 4.32275 48.066C4.32275 47.6742 4.64802 47.3503 5.04149 47.3503H28.188C28.5028 46.107 29.636 45.198 30.9738 45.198C32.5739 45.198 33.8592 46.4779 33.8592 48.066Z" fill="#2B3061"/>
<path d="M54.0366 6.4569C54.0366 6.85392 53.7113 7.17259 53.3178 7.17259H48.2762V13.6294H43.1401C42.8253 14.8728 41.6921 15.7817 40.3543 15.7817C38.7647 15.7817 37.4741 14.4966 37.4741 12.9138C37.4741 11.3309 38.7647 10.0458 40.3543 10.0458C41.4875 10.0458 42.4581 10.6936 42.925 11.6287C43.0194 11.8063 43.0929 11.9943 43.1401 12.1929H46.8334V5.74121H53.3178C53.7113 5.74121 54.0366 6.05987 54.0366 6.4569Z" fill="#683862"/>
<path d="M51.0303 19.3706H51.0565V19.3654L51.0303 19.3706Z" fill="#683862"/>
<path d="M62.6561 16.9885L58.8211 20.8072H51.0566C50.7418 22.0505 49.6086 22.9595 48.2708 22.9595C46.6812 22.9595 45.3906 21.6744 45.3906 20.0915C45.3906 18.5087 46.6812 17.2236 48.2708 17.2236C49.6086 17.2236 50.7366 18.1325 51.0566 19.3706L51.0304 19.3758H58.2282L60.7779 16.8422L61.6435 15.9802C61.9268 15.6982 62.378 15.6982 62.6613 15.9802C62.9394 16.2571 62.9394 16.7064 62.6561 16.9885Z" fill="#683862"/>
<path d="M67 29.4111C67 29.8081 66.6747 30.1268 66.2812 30.1268H51.0566C50.7418 31.3701 49.6086 32.279 48.2708 32.279C46.6812 32.279 45.3906 30.9939 45.3906 29.4111C45.3906 27.8282 46.6812 26.5431 48.2708 26.5431C49.6086 26.5431 50.7418 27.4521 51.0566 28.6954H66.2812C66.68 28.6954 67 29.0193 67 29.4111Z" fill="#683862"/>
<path d="M43.229 39.4568C43.229 40.789 42.3161 41.9173 41.0675 42.2308V51.8377L36.0259 56.858V65.2791C36.0259 65.6761 35.7006 65.9948 35.3071 65.9948C34.9136 65.9948 34.5884 65.6709 34.5884 65.2791V56.2624L39.63 51.2422V42.2308C38.3814 41.9173 37.4686 40.789 37.4686 39.4568C37.4686 37.874 38.7592 36.5889 40.3488 36.5889C41.9384 36.5889 43.229 37.874 43.229 39.4568Z" fill="#2B3061"/>
<path d="M33.8594 39.4568C33.8594 41.0397 32.5688 42.3248 30.9792 42.3248C29.6414 42.3248 28.5082 41.4158 28.1934 40.1725H13.5458L6.33748 33H0.718738C0.325268 33 0 32.6761 0 32.2843C0 31.8873 0.325268 31.5686 0.718738 31.5686H6.93556L14.1387 38.7412H28.1882C28.5029 37.4978 29.6361 36.5889 30.9739 36.5889C32.574 36.5889 33.8594 37.874 33.8594 39.4568Z" fill="#2B3061"/>
<path d="M28.0988 56.6751C28.0988 58.0072 27.1859 59.1356 25.9373 59.449V63.8477C25.9373 64.2447 25.612 64.5633 25.2186 64.5633C24.8199 64.5633 24.4998 64.2395 24.4998 63.8477V59.449C23.2512 59.1356 22.3384 58.0072 22.3384 56.6751C22.3384 55.0922 23.629 53.8071 25.2186 53.8071C26.8082 53.8071 28.0988 55.087 28.0988 56.6751Z" fill="#2B3061"/>
<path d="M66.2811 36.5889C66.2811 36.9859 65.9558 37.3046 65.5623 37.3046H44.5878L37.3847 30.132H28.0043C27.6896 31.3753 26.5564 32.2843 25.2186 32.2843C23.629 32.2843 22.3384 30.9992 22.3384 29.4163C22.3384 27.8334 23.629 26.5483 25.2186 26.5483C26.5564 26.5483 27.6896 27.4573 28.0043 28.7006H37.9827L45.1858 35.8732H65.5623C65.9558 35.868 66.2811 36.1918 66.2811 36.5889Z" fill="#683862"/>
<path d="M64.1198 44.4772C64.1198 44.8742 63.7945 45.1929 63.401 45.1929H48.9896V53.1751C49.7817 53.3736 50.4428 53.9065 50.8205 54.6169C51.0304 55.014 51.151 55.4685 51.151 55.9491C51.151 57.5319 49.8604 58.817 48.2708 58.817C46.6812 58.817 45.3906 57.5319 45.3906 55.9491C45.3906 54.6169 46.3035 53.4886 47.5521 53.1751V43.7615H63.401C63.7945 43.7615 64.1198 44.0854 64.1198 44.4772Z" fill="#2B3061"/>
</svg>
